# xmcd
#
# Track frame offsets:
# 150
# 15957
# 42130
# 59317
# 77722
# 94337
# 114902
# 130990
# 147220
# 169035
# 184470
# 196810
# 211412
# 219112
#
# Disc length: 3107 seconds
#
#
# Revision: 5
# Processed by: cddbd v1.5.1PL0 Copyright (c) Steve Scherf et al.
# Submitted via: FreeRIP 2.942 
#
DISCID=ba0c210e
DTITLE=Marvin Pontiac - The Legendary Marvin Pontiac Greatest Hits
DYEAR=1999
DGENRE=Blues
TTITLE0=I'm a Doggy
TTITLE1=Small Car
TTITLE2=Now I'm Happy
TTITLE3=Power
TTITLE4=Runnin' Round
TTITLE5=Pancakes
TTITLE6=Bring Me Rocks
TTITLE7=Rubin
TTITLE8=Wanna Wanna
TTITLE9=Sleep at Night
TTITLE10=Arms and Legs
TTITLE11=She Ain't Going Home
TTITLE12=Little Fly
TTITLE13=No Kids
EXTD=
EXTT0=
EXTT1=
EXTT2=
EXTT3=
EXTT4=
EXTT5=
EXTT6=
EXTT7=
EXTT8=
EXTT9=
EXTT10=
EXTT11=
EXTT12=
EXTT13=
PLAYORDER=
